PathFileType	4	(X/Y/Z)	/Users/itak/Documents/Research/Walk-IL/dataset/trc/00263_00009.trc
DataRate	CameraRate	NumFrames	NumMarkers	Units	OrigDataRate	OrigDataStartFrame	OrigNumFrames
100.000000	100.000000	4	53	mm	100.000000	0	380
Frame#	Time	RPSI			LPSI			L3			STRN			T10			C7			CLAV			RBAK			LBAK			LSHO			LUPA			LAEL			LAOL			LWTS			LWPS			LFRA			LIFD			LHPS			LHTS			RSHO			RUPA			RAEL			RAOL			RWTS			RWPS			RFRA			RIFD			RHTS			RHPS			RBHD			LFHD			RFHD			LBHD			LHIP			RHIP			RASI			LASI			LKNE			LTHI			LANK			LTIP			LTOE			LMT1			LMT5			LHEE			RKNE			RTHI			RTIP			RTOE			RMT1			RMT5			RHEE			RANK			
		X1	Y1	Z1	X2	Y2	Z2	X3	Y3	Z3	X4	Y4	Z4	X5	Y5	Z5	X6	Y6	Z6	X7	Y7	Z7	X8	Y8	Z8	X9	Y9	Z9	X10	Y10	Z10	X11	Y11	Z11	X12	Y12	Z12	X13	Y13	Z13	X14	Y14	Z14	X15	Y15	Z15	X16	Y16	Z16	X17	Y17	Z17	X18	Y18	Z18	X19	Y19	Z19	X20	Y20	Z20	X21	Y21	Z21	X22	Y22	Z22	X23	Y23	Z23	X24	Y24	Z24	X25	Y25	Z25	X26	Y26	Z26	X27	Y27	Z27	X28	Y28	Z28	X29	Y29	Z29	X30	Y30	Z30	X31	Y31	Z31	X32	Y32	Z32	X33	Y33	Z33	X34	Y34	Z34	X35	Y35	Z35	X36	Y36	Z36	X37	Y37	Z37	X38	Y38	Z38	X39	Y39	Z39	X40	Y40	Z40	X41	Y41	Z41	X42	Y42	Z42	X43	Y43	Z43	X44	Y44	Z44	X45	Y45	Z45	X46	Y46	Z46	X47	Y47	Z47	X48	Y48	Z48	X49	Y49	Z49	X50	Y50	Z50	X51	Y51	Z51	X52	Y52	Z52	X53	Y53	Z53	

1	0	-1460.109130859375	1047.404296875	633.7247924804688	-1449.470092773438	1049.376708984375	513.2410888671875	-1453.838500976562	1131.864135742188	553.9398803710938	-1196.765625	1312.350219726562	556.5509643554688	-1454.32373046875	1257.39208984375	558.8946533203125	-1383.768920898438	1516.88134765625	551.6268920898438	-1218.5361328125	1431.3583984375	555.745361328125	-1462.55322265625	1381.6474609375	626.2484741210938	-1406.291381835938	1478.764282226562	442.600341796875	-1317.57568359375	1477.723266601562	386.8716125488281	-1353.145263671875	1360.6962890625	309.0208129882812	-1346.823364257812	1150.8662109375	279.3350830078125	-1416.88427734375	1135.855102539062	330.2247619628906	-1261.0224609375	912.5057983398438	331.6133728027344	-1288.595458984375	898.515625	252.9455718994141	-1328.158081054688	1043.010131835938	263.9876098632812	-1269.2646484375	722.3199462890625	323.5279846191406	-1276.239868164062	809.9214477539062	255.1977081298828	-1231.09423828125	811.2410888671875	307.5278625488281	-1328.96533203125	1480.532348632812	722.0238037109375	-1352.150512695312	1418.190185546875	789.9979248046875	-1382.073364257812	1137.868896484375	832.3284912109375	-1403.380737304688	1130.47802734375	739.4237060546875	-1239.90478515625	922.433837890625	809.658935546875	-1300.406372070312	908.805419921875	868.0518798828125	-1357.058837890625	1069.45458984375	849.0607299804688	-1227.093139648438	730.4407958984375	805.250732421875	-1201.651245117188	802.2696533203125	832.1904296875	-1259.420532226562	802.059814453125	876.1342163085938	-1337.779052734375	1673.166381835938	592.7373657226562	-1132.418334960938	1705.190063476562	501.1399841308594	-1135.292724609375	1709.892578125	601.028076171875	-1288.994384765625	1671.82373046875	460.5538330078125	-1342.708374023438	979.4796142578125	378.4827270507812	-1367.622802734375	1011.777648925781	745.9492797851562	-1268.5615234375	1048.426879882812	710.694580078125	-1243.38818359375	1020.247619628906	431.0393676757812	-1338.629516601562	496.4537963867188	462.026611328125	-1331.12890625	637.456298828125	420.7417602539062	-1458.807983398438	36.84307479858398	513.1878662109375	-1403.041015625	275.7520141601562	477.3204040527344	-1244.245239257812	47.47649765014648	573.4129028320312	-1312.951416015625	39.8808708190918	615.6454467773438	-1329.628784179688	41.29322814941406	500.3037414550781	-1522.30859375	41.50820159912109	564.227294921875	-1224.929321289062	529.961669921875	737.9723510742188	-1273.577880859375	795.7515258789062	761.0326538085938	-1232.725463867188	406.4730834960938	731.4271240234375	-1187.226318359375	65.26657867431641	708.0376586914062	-1240.703491210938	57.80012512207031	662.804443359375	-1287.9013671875	54.69648361206055	771.4940185546875	-1456.477783203125	68.58128356933594	685.3733520507812	-1395.1728515625	63.01104736328125	744.6973876953125	
2	0.01	-1458.624267578125	1047.342041015625	633.8096313476562	-1448.176147460938	1049.307373046875	513.253662109375	-1452.47216796875	1131.813232421875	553.8792114257812	-1195.23291015625	1312.060302734375	556.0999145507812	-1452.736694335938	1257.372802734375	558.8369140625	-1382.053833007812	1516.777465820312	551.4403686523438	-1216.81640625	1431.150024414062	555.3729248046875	-1460.856323242188	1381.58154296875	626.1135864257812	-1404.69384765625	1478.741821289062	442.4656982421875	-1316.049194335938	1477.59814453125	386.6483154296875	-1351.830688476562	1360.715209960938	308.7239074707031	-1345.7861328125	1150.819580078125	279.0291442871094	-1415.835327148438	1136.009155273438	329.862548828125	-1260.391479492188	912.3792114257812	331.245361328125	-1287.857666015625	898.4105224609375	252.6657562255859	-1327.220092773438	1042.992553710938	263.641845703125	-1268.763427734375	722.2123413085938	323.2518615722656	-1275.132934570312	809.76806640625	255.0991058349609	-1230.41748046875	811.0543212890625	307.2290954589844	-1327.124755859375	1480.347412109375	721.7672729492188	-1350.238891601562	1418.013427734375	789.7706298828125	-1380.374389648438	1137.710693359375	832.112548828125	-1401.667846679688	1130.357299804688	739.2008666992188	-1238.263427734375	922.2711791992188	809.7324829101562	-1298.845092773438	908.647705078125	868.07568359375	-1355.42529296875	1069.319458007812	848.9520263671875	-1225.64501953125	730.4253540039062	805.4813842773438	-1200.063232421875	802.076904296875	832.3621826171875	-1257.963989257812	801.9085083007812	876.3438720703125	-1335.821166992188	1673.103637695312	592.75830078125	-1130.660766601562	1704.895141601562	500.4612426757812	-1133.219604492188	1709.600341796875	600.3181762695312	-1287.464477539062	1671.703125	460.4158325195312	-1341.729614257812	979.3006591796875	378.365234375	-1365.83837890625	1011.880737304688	745.8084716796875	-1266.860107421875	1048.377563476562	710.2994995117188	-1242.191040039062	1019.975402832031	430.6241760253906	-1337.6708984375	496.2481994628906	462.0551147460938	-1330.175537109375	637.3201904296875	420.6969604492188	-1458.762451171875	36.89098739624023	513.2250366210938	-1402.583862304688	275.6322326660156	477.3976135253906	-1244.221435546875	47.46760940551758	573.4437255859375	-1312.941528320312	39.86259078979492	615.6659545898438	-1329.671875	41.28992080688477	500.3267822265625	-1522.310668945312	41.53828048706055	564.259033203125	-1221.34130859375	530.5016479492188	737.3251342773438	-1271.195068359375	796.0865478515625	760.732177734375	-1228.490478515625	407.0316772460938	730.9273681640625	-1181.034423828125	65.82353973388672	707.5657348632812	-1234.63134765625	58.10468673706055	662.4529418945312	-1281.473999023438	54.82793807983398	771.2997436523438	-1450.34326171875	67.85014343261719	685.6717529296875	-1388.960327148438	62.61415863037109	744.8297729492188	
3	0.02	-1456.714965820312	1047.253173828125	633.9191284179688	-1446.524291992188	1049.19873046875	513.280029296875	-1450.72998046875	1131.746704101562	553.8167114257812	-1193.2685546875	1311.703979492188	555.5283813476562	-1450.710205078125	1257.341796875	558.7666625976562	-1379.862548828125	1516.644287109375	551.2131958007812	-1214.627807617188	1430.877197265625	554.9006958007812	-1458.686157226562	1381.497924804688	625.9561157226562	-1402.66064453125	1478.70703125	442.2979736328125	-1314.1044921875	1477.455078125	386.3560485839844	-1350.148803710938	1360.720825195312	308.361572265625	-1344.440185546875	1150.7578125	278.6542053222656	-1414.485961914062	1136.159790039062	329.4376831054688	-1259.593139648438	912.1917114257812	330.7990112304688	-1286.893432617188	898.2735595703125	252.3230590820312	-1326.006469726562	1042.955932617188	263.2307434082031	-1268.0419921875	722.09033203125	322.9666137695312	-1273.752197265625	809.571044921875	254.9747467041016	-1229.518432617188	810.8255615234375	306.8736572265625	-1324.762451171875	1480.102416992188	721.4496459960938	-1347.791870117188	1417.781860351562	789.4824829101562	-1378.1875	1137.511962890625	831.852294921875	-1399.46826171875	1130.178466796875	738.9437255859375	-1236.183227539062	922.0342407226562	809.8226318359375	-1296.857177734375	908.44189453125	868.1132202148438	-1353.3232421875	1069.149291992188	848.8163452148438	-1223.8193359375	730.3341674804688	805.7380981445312	-1198.078735351562	801.798095703125	832.5881958007812	-1256.102294921875	801.6942749023438	876.5802001953125	-1333.310180664062	1673.0087890625	592.7927856445312	-1128.423583984375	1704.509399414062	499.6075439453125	-1130.574584960938	1709.209350585938	599.4259643554688	-1285.510009765625	1671.556884765625	460.2460632324219	-1340.470947265625	979.0555419921875	378.2218933105469	-1363.567626953125	1011.987121582031	745.6486206054688	-1264.692626953125	1048.3125	709.8136596679688	-1240.704956054688	1019.640258789062	430.0986633300781	-1336.491943359375	495.983154296875	462.0820922851562	-1328.96435546875	637.1358642578125	420.6549072265625	-1458.706420898438	36.94700622558594	513.2687377929688	-1401.999389648438	275.47802734375	477.494873046875	-1244.206298828125	47.45201873779297	573.4791259765625	-1312.9248046875	39.84287643432617	615.690185546875	-1329.725463867188	41.28511428833008	500.3449401855469	-1522.312744140625	41.57685470581055	564.3002319335938	-1216.796630859375	531.1898803710938	736.5210571289062	-1268.137451171875	796.4962768554688	760.35888671875	-1223.094970703125	407.735595703125	730.2785034179688	-1173.055786132812	66.54868316650391	706.9111938476562	-1226.808227539062	58.4775390625	661.9823608398438	-1273.171752929688	54.97473526000977	771.034912109375	-1442.452758789062	66.86028289794922	686.1025390625	-1380.907104492188	62.08620452880859	745.0375366210938	
4	0.03	-1454.439208984375	1047.138305664062	634.0487060546875	-1444.568481445312	1049.046142578125	513.3260498046875	-1448.669311523438	1131.663940429688	553.7617797851562	-1190.931884765625	1311.297241210938	554.8587646484375	-1448.311157226562	1257.297119140625	558.6885375976562	-1377.265747070312	1516.4853515625	550.95849609375	-1212.044677734375	1430.545532226562	554.345458984375	-1456.1103515625	1381.3994140625	625.7891235351562	-1400.260986328125	1478.656982421875	442.1055908203125	-1311.80810546875	1477.30078125	386.0053100585938	-1348.153686523438	1360.703979492188	307.9555053710938	-1342.820678710938	1150.678588867188	278.2329711914062	-1412.874755859375	1136.285278320312	328.9794616699219	-1258.642700195312	911.9442749023438	330.302978515625	-1285.721557617188	898.1065063476562	251.9376983642578	-1324.548217773438	1042.892700195312	262.7812805175781	-1267.09375	721.9572143554688	322.7059326171875	-1272.165161132812	809.33447265625	254.8273010253906	-1228.40966796875	810.5654296875	306.48681640625	-1321.94873046875	1479.801879882812	721.0863647460938	-1344.885498046875	1417.499267578125	789.1458740234375	-1375.57666015625	1137.279174804688	831.5651245117188	-1396.85009765625	1129.9423828125	738.673828125	-1233.739624023438	921.7166748046875	809.9237670898438	-1294.509521484375	908.1914672851562	868.1655883789062	-1350.814819335938	1068.948974609375	848.660888671875	-1221.692993164062	730.1380004882812	805.9996337890625	-1195.77880859375	801.4326782226562	832.8545532226562	-1253.897338867188	801.41845703125	876.8215942382812	-1330.321899414062	1672.878295898438	592.8427734375	-1125.783447265625	1704.042358398438	498.6127014160156	-1127.44482421875	1708.724609375	598.387451171875	-1283.191772460938	1671.388061523438	460.0537414550781	-1338.972045898438	978.7460327148438	378.0596618652344	-1360.8876953125	1012.085632324219	745.4796752929688	-1262.131103515625	1048.232421875	709.2584228515625	-1238.986450195312	1019.256103515625	429.4862976074219	-1335.146240234375	495.6683349609375	462.100830078125	-1327.535766601562	636.9036865234375	420.62255859375	-1458.6435546875	37.00733947753906	513.3162231445312	-1401.2998046875	275.2951049804688	477.6102905273438	-1244.201782226562	47.4266242980957	573.51904296875	-1312.900146484375	39.82284927368164	615.7179565429688	-1329.786865234375	41.27869415283203	500.3523864746094	-1522.314453125	41.62256240844727	564.349365234375	-1211.460815429688	532.003662109375	735.59619140625	-1264.506958007812	796.9595336914062	759.9286499023438	-1216.72314453125	408.5581665039062	729.5	-1163.524169921875	67.42034912109375	706.0750732421875	-1217.465209960938	58.90844345092773	661.3978271484375	-1263.2255859375	55.12985229492188	770.7003173828125	-1433.03955078125	65.62851715087891	686.6641845703125	-1371.2333984375	61.43881607055664	745.3243408203125	
